<svg xmlns="http://www.w3.org/2000/svg" width="600" height="848" viewBox="0 0 600 848"><rect width="600" height="848" fill="#f8fbfd"/><rect x="24" y="24" width="552" height="800" rx="5" fill="none" stroke="#315a78" stroke-width="3"/><rect x="34" y="34" width="532" height="780" rx="3" fill="none" stroke="#b9945a" stroke-width="1.5"/><text x="300" y="78" text-anchor="middle" font-family="Georgia,serif" font-size="16" fill="#315a78">A PERSONAL INTRODUCTION</text><text x="300" y="126" text-anchor="middle" font-family="Georgia,serif" font-size="32" font-weight="bold" fill="#302a25">Aarav Mehta</text><text x="300" y="153" text-anchor="middle" font-family="Arial,sans-serif" font-size="12" letter-spacing="2" fill="#315a78">MARRIAGE BIODATA</text><rect x="226" y="178" width="148" height="142" rx="5" fill="#e8ded1" stroke="#315a78" stroke-width="3"/><circle cx="300" cy="222" r="25" fill="#c8b19d"/><path d="M258 295 Q260 245 300 250 Q340 245 342 295Z" fill="#b49b87"/><path d="M80 348H520" stroke="#b9945a" stroke-width="2"/><text x="70" y="388" font-family="Georgia,serif" font-size="22" fill="#315a78">Personal Details</text><text x="76" y="416" font-family="Arial,sans-serif" font-size="13" fill="#756b61">Date of Birth</text><path d="M235 412H505" stroke="#b9945a" stroke-width="1" opacity=".65"/><text x="238" y="416" font-family="Arial,sans-serif" font-size="13" fill="#3d352f">Sample detail</text><text x="76" y="454" font-family="Arial,sans-serif" font-size="13" fill="#756b61">Height</text><path d="M235 450H505" stroke="#b9945a" stroke-width="1" opacity=".65"/><text x="238" y="454" font-family="Arial,sans-serif" font-size="13" fill="#3d352f">Sample detail</text><text x="76" y="492" font-family="Arial,sans-serif" font-size="13" fill="#756b61">Education</text><path d="M235 488H505" stroke="#b9945a" stroke-width="1" opacity=".65"/><text x="238" y="492" font-family="Arial,sans-serif" font-size="13" fill="#3d352f">Sample detail</text><text x="76" y="530" font-family="Arial,sans-serif" font-size="13" fill="#756b61">Occupation</text><path d="M235 526H505" stroke="#b9945a" stroke-width="1" opacity=".65"/><text x="238" y="530" font-family="Arial,sans-serif" font-size="13" fill="#3d352f">Sample detail</text><text x="76" y="568" font-family="Arial,sans-serif" font-size="13" fill="#756b61">Community</text><path d="M235 564H505" stroke="#b9945a" stroke-width="1" opacity=".65"/><text x="238" y="568" font-family="Arial,sans-serif" font-size="13" fill="#3d352f">Sample detail</text><text x="70" y="625" font-family="Georgia,serif" font-size="22" fill="#315a78">Family Details</text><path d="M76 655H510" stroke="#b9945a" stroke-width="1" opacity=".6"/><path d="M76 683H510" stroke="#b9945a" stroke-width="1" opacity=".6"/><path d="M76 711H510" stroke="#b9945a" stroke-width="1" opacity=".6"/><text x="300" y="780" text-anchor="middle" font-family="Arial,sans-serif" font-size="10" fill="#315a78">ILLUSTRATIVE PREVIEW • SAMPLE DETAILS</text></svg>